<?xml version="1.0" encoding="utf-8"?>
<!-- Generator: Adobe Illustrator 23.0.1, SVG Export Plug-In . SVG Version: 6.00 Build 0)  -->
<svg version="1.1" id="Layer_1" xmlns="http://www.w3.org/2000/svg" xmlns:xlink="http://www.w3.org/1999/xlink" x="0px" y="0px"
	 viewBox="0 0 612 792" style="enable-background:new 0 0 612 792;" xml:space="preserve">
<style type="text/css">
	.st0{fill:#30A4FE;}
</style>
<g>
	<path class="st0" d="M338.2,405.6c-12.42,0-24.24-0.03-36.06,0.03c-1.83,0.01-1.59-1.05-1.59-2.17c0-9.2,0-18.4,0-27.6
		c0-5.16,0-10.32,0-16.21C313.28,375.19,325.55,390.17,338.2,405.6z"/>
	<path class="st0" d="M297.12,370.26c0,11.64-0.01,22.73,0.02,33.82c0,1.11-0.3,1.54-1.47,1.54c-6.55-0.04-13.09-0.05-19.64,0
		c-1.17,0.01-1.46-0.44-1.52-1.52c-0.22-4.22,0.44-8.29,2.02-12.17C280.5,382.21,287.43,375.28,297.12,370.26z"/>
	<path class="st0" d="M277.66,408.89c5.14,0,9.68,0,14.23,0c11.75,0,23.5,0.03,35.25-0.03c1.61-0.01,2.36,0.33,2.17,2.08
		c-0.14,1.26-0.03,2.55-0.03,3.83c0,3.52-0.01,3.47-3.49,4.38c-2.2,0.58-4.29,0.29-6.31-0.59c-2.8-1.24-5.56-1.22-8.35,0.01
		c-2.62,1.16-5.27,1.21-7.9,0.05c-2.95-1.31-5.81-1.18-8.81,0.02c-4.37,1.76-8.43,0.65-11.41-2.94
		C281.3,413.63,279.68,411.47,277.66,408.89z"/>
	<path class="st0" d="M274.15,427.49c-0.39-1.65,0.32-2.42,2.45-3.16c4-1.39,7.68-1.61,11.59,0.07c2.07,0.89,4.25,0.49,6.29-0.41
		c2.95-1.3,5.86-1.3,8.81,0.01c2.55,1.14,5.12,1.09,7.66-0.03c2.95-1.3,5.9-1.26,8.82,0.03c2.48,1.1,5,1.13,7.44,0.05
		c3.05-1.35,6.02-1.34,9.04-0.02c0.22,0.1,0.46,0.15,0.67,0.26c0.97,0.52,2.69,0.01,3,0.98c0.46,1.46,0.19,3.15,0.22,4.74
		c0.02,1.09-0.78,1.24-1.46,0.93c-4.72-2.18-9.36-1.79-14.12-0.01c-1.62,0.6-3.47-0.03-5.11-0.79c-2.69-1.24-5.4-1.25-8.12-0.04
		c-2.78,1.23-5.57,1.29-8.35,0.02c-2.71-1.23-5.41-1.21-8.11-0.01c-2.53,1.12-5.15,1.38-7.68,0.25c-3.21-1.44-6.25-1.33-9.49-0.03
		C274.3,431.7,274.15,431.49,274.15,427.49z"/>
</g>
</svg>
