<?xml version="1.0" encoding="utf-8"?>
<!-- Generator: Adobe Illustrator 23.0.1, SVG Export Plug-In . SVG Version: 6.00 Build 0)  -->
<svg version="1.1" id="Layer_1" xmlns="http://www.w3.org/2000/svg" xmlns:xlink="http://www.w3.org/1999/xlink" x="0px" y="0px"
	 viewBox="0 0 612 792" style="enable-background:new 0 0 612 792;" xml:space="preserve">
<style type="text/css">
	.st0{fill:#30A4FE;}
</style>
<g>
	<path class="st0" d="M302.23,434.43c-4.89-4.02-9.26-7.61-13.63-11.19c-1.73-1.42-3.45-2.84-5.18-4.26
		c-0.61-0.5-1.08-0.98-0.21-1.69c6.2-5.1,12.39-10.21,19.02-15.68c0,2.95,0.02,5.31-0.01,7.67c-0.01,0.98,0.09,1.75,1.38,1.67
		c10.47-0.61,20.26-2.91,27.53-11.27c2.81-3.23,4.73-6.99,5.96-11.1c0.09-0.29,0.29-0.54,0.54-1.01c1.72,3.14,1.53,6.33,1.02,9.42
		c-2.39,14.44-11.69,23.86-26.29,26.83c-2.58,0.53-5.17,1.06-7.82,1.03c-1.66-0.02-2.47,0.55-2.35,2.39
		C302.34,429.38,302.23,431.53,302.23,434.43z"/>
	<path class="st0" d="M274.78,407.53c-1.96-4.01-1.62-7.5-0.95-10.95c2.77-14.18,11.82-22.13,25.45-25.5
		c2.88-0.71,5.81-1.14,8.76-1.24c1.89-0.07,2.24-0.84,2.14-2.49c-0.13-2.12-0.03-4.25-0.03-6.89c3.69,3.01,7.01,5.71,10.32,8.42
		c2.72,2.23,5.44,4.46,8.14,6.72c0.61,0.51,1.69,0.94,0.43,1.97c-6.07,4.95-12.12,9.92-18.18,14.88c-0.09,0.07-0.29,0.01-0.71,0.01
		c0-2.28,0-4.57,0-6.85c0-0.91,0.05-1.83-1.3-1.76c-10.39,0.57-20.14,2.79-27.46,10.97C278.25,398.3,276.26,402.48,274.78,407.53z"
		/>
</g>
</svg>
