<?xml version="1.0" encoding="utf-8"?>
<!-- Generator: Adobe Illustrator 23.0.1, SVG Export Plug-In . SVG Version: 6.00 Build 0)  -->
<svg version="1.1" id="Layer_1" xmlns="http://www.w3.org/2000/svg" xmlns:xlink="http://www.w3.org/1999/xlink" x="0px" y="0px"
	 viewBox="0 0 612 792" style="enable-background:new 0 0 612 792;" xml:space="preserve">
<style type="text/css">
	.st0{fill:#30A4FE;}
</style>
<g>
	<path class="st0" d="M313.51,360.61c0,6.89,0,13.03,0,19.17c0,8.23-0.01,16.46,0.01,24.7c0,1.15,0.17,2.14-1.63,2.13
		c-11.82-0.07-23.65-0.04-36.01-0.04C288.43,391.23,300.73,376.22,313.51,360.61z"/>
	<path class="st0" d="M316.87,389.01c0-5.27,0.02-10.55-0.01-15.82c-0.01-1.32,0.1-2.06,1.67-1.15
		c10.52,6.03,18.05,14.38,20.62,26.55c1.61,7.61,1.27,7.97-6.37,7.97c-4.63,0-9.27-0.06-13.9,0.03c-1.56,0.03-2.06-0.4-2.03-2
		C316.93,399.4,316.87,394.21,316.87,389.01z"/>
	<path class="st0" d="M336.44,409.85c-2.31,2.91-4.02,5.45-6.11,7.61c-2.86,2.95-6.54,3.79-10.36,2.27
		c-3.25-1.29-6.27-1.45-9.48-0.03c-2.44,1.08-4.99,0.93-7.45-0.15c-2.86-1.26-5.7-1.33-8.57,0c-1.39,0.64-2.89,0.91-4.43,0.84
		c-4.36-0.21-5.32-1.2-5.32-5.48c0-5.08,0-5.08,5.14-5.08c14.47,0,28.94,0,43.41,0C334.11,409.85,334.96,409.85,336.44,409.85z"/>
	<path class="st0" d="M274.01,428.45c-0.38-1.63,0.29-2.43,2.44-3.16c3.99-1.35,7.69-1.64,11.6,0.07c1.97,0.87,4.11,0.56,6.07-0.32
		c3.02-1.36,6-1.42,9.04-0.08c2.55,1.12,5.12,1.11,7.67-0.01c2.95-1.31,5.87-1.27,8.81,0.03c2.55,1.13,5.17,1.18,7.65-0.08
		c4.25-2.16,8.1,0.07,12.06,0.98c1,0.23,0.47,1.39,0.48,2.11c0.08,4.62,0.03,4.69-4.25,3.04c-2.77-1.07-5.42-1.06-8.13,0.12
		c-2.7,1.18-5.42,1.2-8.13-0.02c-2.7-1.21-5.4-1.24-8.12-0.05c-2.78,1.22-5.56,1.28-8.36,0.03c-2.78-1.25-5.57-1.19-8.35,0.06
		c-2.63,1.18-5.29,1.17-7.9,0.02c-2.88-1.27-5.71-1.33-8.56,0.01c-0.14,0.07-0.29,0.14-0.44,0.19
		C274.21,432.55,274.01,432.41,274.01,428.45z"/>
</g>
</svg>
